<?xml version="1.0" standalone="no"?><!DOCTYPE svg PUBLIC "-//W3C//DTD SVG 1.1//EN" "http://www.w3.org/Graphics/SVG/1.1/DTD/svg11.dtd"><svg t="1577969012079" class="icon" viewBox="0 0 1025 1024" version="1.1" xmlns="http://www.w3.org/2000/svg" p-id="10707" xmlns:xlink="http://www.w3.org/1999/xlink" width="200.1953125" height="200"><defs><style type="text/css"></style></defs><path d="M0.000655 0.143268h60.889031v252.76623H0.000655zM199.041269 0.143268h60.889031v252.76623H199.041269z" fill="#faac36" p-id="10708"></path><path d="M256.358826 192.542373v60.889031H3.592596v-60.889031zM253.288791 0.005117v60.889031h-252.76623v-60.889031zM390.478429 102.017269v60.889031h-191.365526v-60.889031z" fill="#faac36" p-id="10709"></path><path d="M1024.369059 0.143268h-288.583307v253.789575H395.011848V61.032299h145.314998v99.776144h60.889031V0.143268H334.122817v313.143588h2.04669v1.535018h460.505276V61.032299H1024.369059zM0.000655 1024v-288.583307h253.789575V394.642789H60.889686v145.314998h99.776143v60.889031H0.000655V333.753758H313.144243v2.04669h1.535018v460.505276H60.889686v227.694276z" fill="#faac36" p-id="10710"></path><path d="M99.776798 195.090502h60.889031v191.365526H99.776798z" fill="#faac36" p-id="10711"></path></svg>