<?xml version="1.0" standalone="no"?><!DOCTYPE svg PUBLIC "-//W3C//DTD SVG 1.1//EN" "http://www.w3.org/Graphics/SVG/1.1/DTD/svg11.dtd"><svg t="1578056400641" class="icon" viewBox="0 0 1125 1024" version="1.1" xmlns="http://www.w3.org/2000/svg" p-id="2133" xmlns:xlink="http://www.w3.org/1999/xlink" width="219.7265625" height="200"><defs><style type="text/css"></style></defs><path d="M613.140349 0a508.549656 508.549656 0 0 0-431.755245 240.053641 56.884749 56.884749 0 0 0-21.616204 36.406239A56.884749 56.884749 0 0 0 155.21812 284.423745a56.884749 56.884749 0 0 0 113.769498 0 410.707887 410.707887 0 1 1-30.717765 398.193242h-17.065424l125.146447-30.717764a17.634272 17.634272 0 0 0 6.257323-31.85546L134.73961 467.592636a17.634272 17.634272 0 0 0-26.735832 6.82617L1.629298 705.939734a17.634272 17.634272 0 0 0 20.478509 24.460442l113.769498-27.873527A511.96274 511.96274 0 1 0 613.140349 0z m-48.920884 731.537871l271.340252-158.139602a71.105936 71.105936 0 0 0 0-122.871057L564.219465 292.38761A69.399394 69.399394 0 0 0 529.519768 284.423745a71.674784 71.674784 0 0 0-35.268544 9.670407 69.968241 69.968241 0 0 0-34.699697 60.866681v316.848052a70.537089 70.537089 0 0 0 34.699697 61.435529 68.830546 68.830546 0 0 0 69.968241-1.706543z m-29.58007-368.613173L790.051918 511.96274l-255.412523 149.038043z" fill="#faac36" p-id="2134"></path></svg>