<?xml version="1.0" standalone="no"?><!DOCTYPE svg PUBLIC "-//W3C//DTD SVG 1.1//EN" "http://www.w3.org/Graphics/SVG/1.1/DTD/svg11.dtd"><svg t="1577968450572" class="icon" viewBox="0 0 1024 1024" version="1.1" xmlns="http://www.w3.org/2000/svg" p-id="4031" xmlns:xlink="http://www.w3.org/1999/xlink" width="200" height="200"><defs><style type="text/css"></style></defs><path d="M512 1008c-66.942 0-131.903-13.12-193.078-38.995-59.068-24.984-112.108-60.741-157.647-106.28-45.539-45.539-81.296-98.579-106.28-157.647C29.12 643.903 16 578.942 16 512s13.12-131.903 38.995-193.078c24.984-59.068 60.741-112.108 106.28-157.647 45.539-45.539 98.579-81.296 157.647-106.28C380.097 29.12 445.058 16 512 16s131.903 13.12 193.078 38.995c59.068 24.984 112.108 60.741 157.647 106.28 45.539 45.539 81.296 98.579 106.28 157.647C994.88 380.097 1008 445.058 1008 512s-13.12 131.903-38.995 193.078c-24.984 59.068-60.741 112.108-106.28 157.647-45.539 45.539-98.579 81.296-157.647 106.28C643.903 994.88 578.942 1008 512 1008z m0-912c-56.177 0-110.653 10.993-161.914 32.675-49.532 20.95-94.025 50.951-132.242 89.169-38.218 38.217-68.219 82.71-89.17 132.242C106.995 401.347 96 455.823 96 512s10.993 110.653 32.675 161.914c20.95 49.532 50.951 94.025 89.169 132.242 38.217 38.218 82.71 68.219 132.242 89.17C401.347 917.005 455.823 928 512 928s110.653-10.993 161.914-32.675c49.532-20.95 94.025-50.951 132.242-89.169 38.218-38.217 68.219-82.71 89.17-132.242C917.005 622.653 928 568.177 928 512s-10.993-110.653-32.675-161.914c-20.95-49.532-50.951-94.025-89.169-132.242-38.217-38.218-82.71-68.219-132.242-89.17C622.653 106.995 568.177 96 512 96z" p-id="4032" fill="#faac36"></path><path d="M381.541 741.021a49.989 49.989 0 0 1-25-6.677c-15.42-8.903-25-25.495-25-43.301V332.957c0-17.806 9.58-34.398 25-43.301 15.42-8.904 34.58-8.903 50 0L716.654 468.7c15.42 8.904 24.999 25.495 24.999 43.301s-9.58 34.397-25 43.3L406.542 734.345a49.992 49.992 0 0 1-25 6.677z m30-356.103v254.164L631.65 512l-220.11-127.082z m265.064 153.036l0.046 0.026-0.046-0.026z" p-id="4033" fill="#faac36"></path></svg>